<svg name="House Stark" width="114" height="57" viewBox="0 0 114 57" fill="none" xmlns="http://www.w3.org/2000/svg">
<path d="M58.52 32.12C58.52 32.12 60.76 32.26 62.22 33.52C63.7 34.78 65.72 37.58 66.36 37.72C66.98 37.86 70.9 37.1 73.06 37.44C75.24 37.8 79.64 36.54 82.72 37.52C85.78 38.48 86.06 39.18 87.54 39.46C89 39.74 90.2 39.18 91.1 39.82C92.02 40.44 98.3 46.12 98.94 47.16C99.56 48.2 100.48 50.24 102.5 50.3C104.52 50.38 105.5 50.8 105.58 50.16C105.64 49.54 105.16 47.64 104.18 46.66C103.2 45.7 99.22 42.68 97.82 41.5C96.42 40.3 93.9 37.58 93.62 36.68C93.34 35.76 93.34 35 92.16 34.78C90.96 34.58 88.44 35.06 86.76 34.64C85.1 34.22 80.76 32.82 78.44 31.7C76.14 30.58 74.4 26.32 74.4 26.32" fill="#666666"/>
<path d="M58.52 32.12C58.52 32.12 60.76 32.26 62.22 33.52C63.7 34.78 65.72 37.58 66.36 37.72C66.98 37.86 70.9 37.1 73.06 37.44C75.24 37.8 79.64 36.54 82.72 37.52C85.78 38.48 86.06 39.18 87.54 39.46C89 39.74 90.2 39.18 91.1 39.82C92.02 40.44 98.3 46.12 98.94 47.16C99.56 48.2 100.48 50.24 102.5 50.3C104.52 50.38 105.5 50.8 105.58 50.16C105.64 49.54 105.16 47.64 104.18 46.66C103.2 45.7 99.22 42.68 97.82 41.5C96.42 40.3 93.9 37.58 93.62 36.68C93.34 35.76 93.34 35 92.16 34.78C90.96 34.58 88.44 35.06 86.76 34.64C85.1 34.22 80.76 32.82 78.44 31.7C76.14 30.58 74.4 26.32 74.4 26.32" stroke="white" stroke-width="0.2"/>
<path d="M101.78 50.2C101.26 49.82 100.16 48.78 99.8401 47.8M100.58 47.12C100.58 47.12 100.9 48.12 102.16 48.9C103.74 49.86 105.02 49.8 105.38 49.32C105.62 49 104.92 47.92 104.88 47.62" stroke="white" stroke-width="0.2"/>
<path d="M21.5199 23.26C23.2599 26.4 24.6799 31.16 25.5999 32.82C21.0399 33.42 16.7399 35.12 14.6999 35.42C12.5739 35.72 9.21192 35.66 8.76792 36.26C8.32192 36.84 5.89992 39.86 4.56592 40.56C3.22992 41.24 1.25192 42.18 1.10392 42.92C0.955918 43.66 0.213918 45.3 0.807918 45.5C1.40192 45.7 1.74792 46.28 2.53792 45.9C3.32992 45.5 4.81192 44.36 5.60392 44.12C6.39392 43.86 8.42192 42.34 8.76792 41.6C9.64192 39.26 11.6599 39.5 11.6599 39.5C11.5779 40.14 11.8179 40.56 12.4139 40.92C12.4499 40.56 12.7699 39.9 13.1239 39.8C13.1239 40.22 13.1579 40.82 13.5539 40.92C13.5539 40.3 13.9199 39.78 14.5599 39.66C14.3199 40.06 14.3999 40.68 14.6999 40.92C15.0799 40.18 15.5399 39.86 15.9599 39.72C15.8999 40.08 15.8599 40.62 16.0199 40.94C16.1799 40.46 16.5399 40 17.3199 39.7C17.2199 40.18 17.1799 40.56 17.5199 41.06C17.6999 40.56 18.0599 39.92 19.0399 39.76C18.7399 40.24 18.7599 40.68 19.0199 40.98C19.0999 40.48 19.7999 39.84 20.3999 39.58C20.0399 40.3 20.1999 40.84 20.5399 40.9C20.6399 40.36 21.2199 39.78 21.7999 39.56C21.3399 40.12 21.7999 40.6 21.9999 40.88C22.0999 40.18 22.5399 39.68 23.1399 39.42C23.0399 40.02 23.1799 40.3 23.3999 40.46C23.4999 39.94 23.8399 39.32 24.3199 39.04H24.2999C26.6799 38.44 31.2999 37.08 31.5999 36.64C31.9599 36.16 32.8999 35.56 32.6399 34.28C32.3999 33 31.3199 28.4 32.8399 27.36C34.3799 26.32 35.3199 25.04 35.3199 25.04" fill="#666666"/>
<path d="M21.5199 23.26C23.2599 26.4 24.6799 31.16 25.5999 32.82C21.0399 33.42 16.7399 35.12 14.6999 35.42C12.5739 35.72 9.21192 35.66 8.76792 36.26C8.32192 36.84 5.89992 39.86 4.56592 40.56C3.22992 41.24 1.25192 42.18 1.10392 42.92C0.955918 43.66 0.213918 45.3 0.807918 45.5C1.40192 45.7 1.74792 46.28 2.53792 45.9C3.32992 45.5 4.81192 44.36 5.60392 44.12C6.39392 43.86 8.42192 42.34 8.76792 41.6C9.64192 39.26 11.6599 39.5 11.6599 39.5C11.5779 40.14 11.8179 40.56 12.4139 40.92C12.4499 40.56 12.7699 39.9 13.1239 39.8C13.1239 40.22 13.1579 40.82 13.5539 40.92C13.5539 40.3 13.9199 39.78 14.5599 39.66C14.3199 40.06 14.3999 40.68 14.6999 40.92C15.0799 40.18 15.5399 39.86 15.9599 39.72C15.8999 40.08 15.8599 40.62 16.0199 40.94C16.1799 40.46 16.5399 40 17.3199 39.7C17.2199 40.18 17.1799 40.56 17.5199 41.06C17.6999 40.56 18.0599 39.92 19.0399 39.76C18.7399 40.24 18.7599 40.68 19.0199 40.98C19.0999 40.48 19.7999 39.84 20.3999 39.58C20.0399 40.3 20.1999 40.84 20.5399 40.9C20.6399 40.36 21.2199 39.78 21.7999 39.56C21.3399 40.12 21.7999 40.6 21.9999 40.88C22.0999 40.18 22.5399 39.68 23.1399 39.42C23.0399 40.02 23.1799 40.3 23.3999 40.46C23.4999 39.94 23.8399 39.32 24.3199 39.04H24.2999C26.6799 38.44 31.2999 37.08 31.5999 36.64C31.9599 36.16 32.8999 35.56 32.6399 34.28C32.3999 33 31.3199 28.4 32.8399 27.36C34.3799 26.32 35.3199 25.04 35.3199 25.04" stroke="white" stroke-width="0.2"/>
<path d="M7.80398 41.42C6.90398 42.64 7.87598 42.72 8.34598 42.16M0.677979 44.4C0.677979 44.4 1.00598 43.62 1.34998 43.34C2.02798 42.8 2.70398 42.82 3.92798 41.76M2.84998 45.72C2.84998 45.72 2.43398 45.94 2.15198 45.48C1.77798 44.88 2.06398 44.46 2.72798 43.8C3.31998 43.2 3.88398 43.22 4.51198 42.58" stroke="white" stroke-width="0.2"/>
<path d="M12.8319 6.42003C12.8119 4.42003 12.2419 2.92003 12.4479 2.30003C12.7299 1.46003 12.9719 1.06003 13.4439 1.08003C13.9159 1.10003 14.5199 1.46003 15.2399 1.96003C16.2999 2.70003 17.1999 3.34003 17.9599 5.08003" fill="#666666"/>
<path d="M12.8319 6.42003C12.8119 4.42003 12.2419 2.92003 12.4479 2.30003C12.7299 1.46003 12.9719 1.06003 13.4439 1.08003C13.9159 1.10003 14.5199 1.46003 15.2399 1.96003C16.2999 2.70003 17.1999 3.34003 17.9599 5.08003" stroke="white" stroke-width="0.2"/>
<path d="M2.88794 19.86C2.88794 19.86 3.16994 20.42 3.55994 20.56C4.05194 20.74 4.67394 20.78 5.37994 20.5C6.48794 20.04 7.38394 19.26 8.97594 18.48C10.5619 17.7 12.2319 17 14.3399 17L13.1579 15.92C11.8699 15.84 10.3979 16.36 8.54194 17.54C7.37994 18.28 5.99794 19.16 4.83194 19.86C4.50594 20.06 4.24194 20.06 3.88594 20.1C3.45994 20.16 2.88794 19.86 2.88794 19.86V19.86Z" fill="#CC0000"/>
<path d="M6.90585 20.7C6.55385 20.44 6.42985 20.06 6.39185 19.56C6.74385 20.02 7.08585 20.36 7.62785 20.44" fill="black"/>
<path d="M4.87183 18.04C4.97583 18.42 5.48383 18.9 5.96183 19.06C5.74583 18.62 5.70383 18.46 5.75383 17.88" fill="black"/>
<path d="M22.1398 3.36C20.3198 2.54 18.4398 3.22 17.4798 3.42C15.1598 3.44 12.0478 4.8 9.90384 7.54C9.27584 8.34 8.39384 10 7.83384 10.8C7.27384 11.6 4.93985 12.9 4.16385 13.22C3.40185 13.52 2.79185 14.14 2.13585 14.64C1.86985 14.84 1.54185 15 1.36585 15.28C1.19185 15.56 2.09385 16.26 2.37985 16.72C2.65385 17.16 3.53385 18.06 4.93185 18.08C6.32985 18.12 8.07785 17.34 9.72185 16.64C11.3638 15.94 11.5018 16.1 12.5098 16.58C13.5298 17.06 11.3398 18.36 10.0238 19.18C8.79985 19.94 7.24185 20.38 6.51585 20.72C5.77385 21.08 6.48185 21.4 6.83585 21.7C7.21185 22.02 7.87185 22.02 8.60185 21.82C9.33985 21.6 12.5918 19.3 13.8118 19.06C15.0398 18.8 15.1798 18.86 16.0798 19.38C16.9798 19.9 17.5598 20 18.2198 20.52C19.9198 21.86 19.8598 24.64 22.2398 26.54C24.6198 28.42 27.3598 29.9 30.3998 32.02C34.3798 34.82 45.3798 36.32 48.5998 35.86C53.9598 35.1 54.4998 34.78 58.5198 33.52C62.5398 32.26 64.1598 34.02 66.2198 34.18C68.2798 34.36 73.8798 39.72 74.6598 40.2C75.4598 40.7 76.3998 40.86 78.6198 40.96C80.8398 41.04 83.4598 42.48 84.8598 42.88C86.2398 43.28 87.1198 45.3 87.7198 46.2C88.3198 47.08 92.7198 54.3 93.5598 55.08C94.3998 55.88 95.8799 56.26 96.4399 56.26C96.9799 56.26 96.5799 55.52 96.8799 54.98C97.1799 54.42 97.1598 53.72 96.9598 53.3C96.0198 51.32 92.5198 46 91.7798 44.96C91.0398 43.92 90.2398 41.44 89.8998 40.6C89.5398 39.76 89.2598 39.92 87.7198 39.82C86.1798 39.72 82.7799 36.56 81.5399 35.62C81.1999 35.36 80.9998 35.02 80.8598 34.64H80.8798C81.4598 34.64 81.6198 34.62 82.3998 35.06C82.3598 34.6 81.4798 33.72 80.6198 33.4C81.3998 33.34 81.5599 33.5 82.1399 33.82C81.8999 33.22 81.2999 32.74 80.4399 32.56C80.4399 32.54 80.4398 32.52 80.4198 32.5C80.8998 32.02 81.6199 32.08 82.0399 32.2C81.3599 31.42 80.1798 31.12 79.6998 31.1C80.1398 30.68 80.9198 30.64 81.2798 30.8C80.5798 29.54 79.6198 29.5 78.6798 29.6C78.7798 29.4 79.0599 28.9 79.7399 28.88C79.3199 28.1 78.3798 28.14 77.4998 28.06C77.9198 27.62 78.3398 27.6 78.8798 27.46C78.4798 27.18 77.2999 26.82 76.5399 26.92H76.5198C76.7598 26.42 77.9798 26.52 78.5598 26.48C78.1798 25.92 76.6598 25.52 75.5198 25.52C75.7398 25.12 76.3798 25 77.2998 25.06C76.5798 24.46 75.7998 23.94 74.6598 23.88C75.4998 23.4 76.4599 23.58 77.0399 23.94C76.9199 23.14 75.8398 22.56 74.9798 22.26C75.5598 21.5 76.4398 22.32 77.8198 22.7C78.9798 23.52 80.0398 24.46 80.6998 25.78C81.0398 25.5 81.1798 25.02 81.0598 24.38C82.3398 25.06 82.3798 26.04 82.6798 27C82.8998 26.48 83.1598 25.94 83.0798 25.28C83.9798 26.12 84.5798 27.44 85.2198 28.68C85.5798 27.9 85.4598 27.18 85.3998 26.46C86.8398 27.42 87.5398 28.78 88.3198 30.08C88.4598 29.44 88.4198 28.74 88.2598 28C90.0198 29.08 91.4598 30.38 91.8798 31.86C92.1798 31.06 92.1398 30.3 91.7198 29.54C93.0598 29.86 94.9399 30.8 96.1199 32.16C96.0799 31.4 95.8598 30.88 95.5998 30.38C96.4798 30.32 98.0799 30.74 99.5799 31.66C99.2399 30.9 98.8398 30.2 98.0998 29.64C99.3798 29.58 100.74 30.48 101.66 31C101.52 30.2 100.72 29.32 99.9998 28.78C101.46 28.7 102.98 28.8 104.62 29.34C104.38 28.88 103.86 28.5 103.28 28.14C104.9 28.14 106.48 28.26 108.04 28.88C107.84 28.3 107.38 28.02 106.98 27.76C108.16 27.4 109.42 27.54 110.66 27.66C110.42 27.14 109.96 26.82 109.44 26.54C110.06 26.14 111 25.98 112.2 26.02C111.66 25.46 110.98 25.12 110.26 24.92C110.6 24.54 110.74 24.38 112.84 23.74C111.68 23.38 110.82 23.38 109.34 23.62C110 23.06 110.46 23 111 22.76C109.84 22.34 108.54 21.96 106.66 21.96C107.06 21.48 107.68 21.4 108.24 21.28C106.34 20.66 105.56 20.92 104.42 20.92C104.68 20.74 104.92 20.58 105.62 20.34C104.36 19.84 101.98 20.04 100.18 20.12C96.9599 19.52 94.3598 19.86 92.7798 19.76C90.6198 19.62 91.3399 19.3 88.3399 19.06C85.3399 18.8 79.2598 19.26 75.5798 19.44C71.9198 19.62 70.4398 18.92 60.0998 18.5C50.4598 17.38 43.2798 16.36 37.4998 13.34C38.5198 13.36 39.1598 13.28 39.8198 13.38C39.0798 12.4 37.4198 12.72 36.0198 11.14C36.6398 11.04 38.2598 11.4 38.8798 11.3C37.3398 10.52 34.9398 9 32.9598 8.86C33.6598 8.44 34.4398 8.46 35.1998 8.4C33.8798 7.76 31.6598 7.2 29.5998 7.22C30.2798 6.86 31.3598 6.8 31.6998 6.7C30.5198 5.86 28.4598 6.16 27.2198 6.24C27.6798 5.56 28.8598 5.56 29.4598 5.38C27.7598 4.6 25.8798 4.58 23.6998 5.14C23.7198 4.88 24.3998 4.5 25.3998 4.1C24.3198 3.74 23.3598 3.48 21.0798 4.34C21.4598 3.64 21.7398 3.48 22.1398 3.36V3.36Z" fill="#666666" stroke="white" stroke-width="0.2"/>
<path d="M20.8198 24.94C21.0598 25.48 21.6998 26.94 21.8398 27.9C22.2598 27.04 22.9398 26 22.3398 24.76C23.1998 24.74 23.6398 25.16 24.1798 25.52C24.6598 24.78 24.8798 23.96 24.0398 22.82C25.5798 22.48 25.9198 23.16 26.6798 23.48C26.8798 22.78 26.7998 22.02 26.2198 21.24C27.4198 21 27.8198 21.3 28.6398 21.92C28.6798 21.08 28.5198 19.96 27.9198 19.38C29.1798 18.92 29.8798 19.64 30.9798 20.14C31.0398 19.36 30.4198 18.3 29.7598 17.52C30.8598 17.1 32.0598 18 32.6398 18.32C32.4798 17.32 31.7798 16.5 31.6398 15.64C32.3598 16.06 33.7998 16.46 34.3998 16.3C33.5798 15.6 33.3798 14.78 33.4598 14.12C33.8598 14.62 35.0798 14.82 35.7598 14.62C35.3198 14.12 34.9198 13.6 35.0598 12.82" fill="#666666"/>
<path d="M20.8198 24.94C21.0598 25.48 21.6998 26.94 21.8398 27.9C22.2598 27.04 22.9398 26 22.3398 24.76C23.1998 24.74 23.6398 25.16 24.1798 25.52C24.6598 24.78 24.8798 23.96 24.0398 22.82C25.5798 22.48 25.9198 23.16 26.6798 23.48C26.8798 22.78 26.7998 22.02 26.2198 21.24C27.4198 21 27.8198 21.3 28.6398 21.92C28.6798 21.08 28.5198 19.96 27.9198 19.38C29.1798 18.92 29.8798 19.64 30.9798 20.14C31.0398 19.36 30.4198 18.3 29.7598 17.52C30.8598 17.1 32.0598 18 32.6398 18.32C32.4798 17.32 31.7798 16.5 31.6398 15.64C32.3598 16.06 33.7998 16.46 34.3998 16.3C33.5798 15.6 33.3798 14.78 33.4598 14.12C33.8598 14.62 35.0798 14.82 35.7598 14.62C35.3198 14.12 34.9198 13.6 35.0598 12.82" stroke="white" stroke-width="0.2"/>
<path d="M37.4998 13.34C36.8398 13.32 36.2398 13.36 35.0598 12.82" stroke="white" stroke-width="0.2"/>
<path d="M15.7397 16.28C16.7397 16 17.7397 16.14 18.4197 16.56C18.4997 16.12 17.9397 15.6 17.3797 15.4C18.0797 15.22 18.7797 15.4 19.6597 15.74C19.6997 15.34 19.4597 14.84 19.1597 14.6C19.7597 14.36 20.3397 14.48 21.0397 14.6C20.9197 14.08 20.6397 13.92 20.1397 13.72C20.8597 13.52 21.4997 13.68 22.1797 14.08C21.8997 13.54 21.7797 13.14 21.1397 12.82C21.7397 12.7 22.3197 12.74 22.9197 12.92C22.6597 12.28 21.7197 12.02 21.1197 11.94C21.5597 11.78 22.5597 11.78 23.0197 11.8C22.6197 11.16 22.0997 10.48 21.2397 10.18" stroke="white" stroke-width="0.2"/>
<path d="M96.8399 55.06C96.5799 55.62 95.3399 55.52 94.8199 55.16C94.2999 54.78 93.4199 53.56 93.0999 52.58M96.4599 52.34C96.4599 52.34 97.1599 53.78 96.5199 54.16C95.8999 54.54 95.5399 54.2 94.8799 53.46C94.2599 52.74 93.8199 51.8 93.8199 51.8" stroke="white" stroke-width="0.2"/>
<path d="M27.2799 23.94C28.0599 25.62 28.4199 26.28 28.7999 28.56C29.1999 31 29.6199 34.62 27.7599 36.68C27.0799 37.44 24.8599 39.26 23.1199 40.52C21.3599 41.78 19.9999 42.68 18.1199 44.36C16.2199 46.04 15.4599 48.48 15.0999 49.6C14.7599 50.72 12.1719 52.26 10.9799 52.9C9.79587 53.52 10.2079 53.66 9.65187 55.12C9.08987 56.6 10.7699 56.1 11.4699 56.24C12.1679 56.38 15.3799 54.5 16.2199 54.16C17.0599 53.8 18.2599 50.16 19.1599 49.04C19.6999 48.44 19.6999 48.52 19.6999 48.52C20.2199 48.58 20.6999 49.08 20.7199 49.82C21.1799 49.36 21.2599 48.72 21.0199 47.9C21.5799 47.84 21.8599 48.18 22.0999 48.58C22.5799 48.14 22.4199 47.68 22.1999 47.2C22.5799 47.1 22.9799 47.12 23.4999 47.8C23.7199 47.48 23.6799 47.02 23.4399 46.52C23.9199 46.58 24.3399 46.9 24.5999 47.4C24.7599 47.08 25.1999 46.76 24.6799 45.96C25.1599 45.98 25.6399 46.26 25.8799 46.8C26.2199 46.42 26.3199 45.74 26.3599 45.32C26.7599 45.44 27.0599 45.94 27.1599 46.26C27.5199 45.96 27.7199 45.32 27.4999 44.88C27.8199 44.86 28.1599 45.3 28.4799 45.88C28.6799 45.62 28.8199 45.02 28.7399 44.68C29.3599 44.74 29.5999 45.06 29.8599 45.62C30.3599 45.3 30.3999 44.78 30.2599 44.18C30.7799 44.34 31.0599 44.74 31.2999 45.22C31.6999 44.82 31.5999 44.32 31.3599 43.74C31.9399 43.7 32.2199 44.18 32.5799 44.48C32.7599 43.82 32.4199 43.5 32.2399 43.06C32.7599 43.12 33.1399 43.32 33.4199 43.7C33.4799 43 33.2199 42.38 32.7799 41.82C33.2999 41.82 33.7399 42.2 34.1799 42.56C34.3799 41.56 33.7999 40.94 33.3799 40.24C33.7399 40.24 34.4399 40.76 34.7999 41.08C34.7399 40.12 34.4399 39.82 34.6799 38.64C35.7999 37.16 36.1999 36.46 37.3999 35.82C40.1999 34.36 41.0199 31.24 42.0799 27.24" fill="#666666"/>
<path d="M27.2799 23.94C28.0599 25.62 28.4199 26.28 28.7999 28.56C29.1999 31 29.6199 34.62 27.7599 36.68C27.0799 37.44 24.8599 39.26 23.1199 40.52C21.3599 41.78 19.9999 42.68 18.1199 44.36C16.2199 46.04 15.4599 48.48 15.0999 49.6C14.7599 50.72 12.1719 52.26 10.9799 52.9C9.79587 53.52 10.2079 53.66 9.65187 55.12C9.08987 56.6 10.7699 56.1 11.4699 56.24C12.1679 56.38 15.3799 54.5 16.2199 54.16C17.0599 53.8 18.2599 50.16 19.1599 49.04C19.6999 48.44 19.6999 48.52 19.6999 48.52C20.2199 48.58 20.6999 49.08 20.7199 49.82C21.1799 49.36 21.2599 48.72 21.0199 47.9C21.5799 47.84 21.8599 48.18 22.0999 48.58C22.5799 48.14 22.4199 47.68 22.1999 47.2C22.5799 47.1 22.9799 47.12 23.4999 47.8C23.7199 47.48 23.6799 47.02 23.4399 46.52C23.9199 46.58 24.3399 46.9 24.5999 47.4C24.7599 47.08 25.1999 46.76 24.6799 45.96C25.1599 45.98 25.6399 46.26 25.8799 46.8C26.2199 46.42 26.3199 45.74 26.3599 45.32C26.7599 45.44 27.0599 45.94 27.1599 46.26C27.5199 45.96 27.7199 45.32 27.4999 44.88C27.8199 44.86 28.1599 45.3 28.4799 45.88C28.6799 45.62 28.8199 45.02 28.7399 44.68C29.3599 44.74 29.5999 45.06 29.8599 45.62C30.3599 45.3 30.3999 44.78 30.2599 44.18C30.7799 44.34 31.0599 44.74 31.2999 45.22C31.6999 44.82 31.5999 44.32 31.3599 43.74C31.9399 43.7 32.2199 44.18 32.5799 44.48C32.7599 43.82 32.4199 43.5 32.2399 43.06C32.7599 43.12 33.1399 43.32 33.4199 43.7C33.4799 43 33.2199 42.38 32.7799 41.82C33.2999 41.82 33.7399 42.2 34.1799 42.56C34.3799 41.56 33.7999 40.94 33.3799 40.24C33.7399 40.24 34.4399 40.76 34.7999 41.08C34.7399 40.12 34.4399 39.82 34.6799 38.64C35.7999 37.16 36.1999 36.46 37.3999 35.82C40.1999 34.36 41.0199 31.24 42.0799 27.24" stroke="white" stroke-width="0.2"/>
<path d="M10.212 56.22C10.148 55.64 10.372 54.58 10.632 54.34C10.918 54.02 12.132 53.36 12.658 52.82M11.79 56.24C11.412 55.88 11.472 54.96 11.732 54.72C12.018 54.4 13.18 53.84 13.706 53.3" stroke="white" stroke-width="0.2"/>
<path d="M19.5398 9.02001C19.8198 8.08001 19.6998 5.76 19.3998 4.9C18.7398 2.92 18.2198 2.20001 17.4798 1.32001C16.8598 0.600006 16.1798 -0.219997 15.3398 1.48C14.8198 2.58 14.8198 3.82001 14.7998 4.96001" fill="#666666"/>
<path d="M19.5398 9.02001C19.8198 8.08001 19.6998 5.76 19.3998 4.9C18.7398 2.92 18.2198 2.20001 17.4798 1.32001C16.8598 0.600006 16.1798 -0.219997 15.3398 1.48C14.8198 2.58 14.8198 3.82001 14.7998 4.96001" stroke="white" stroke-width="0.2"/>
<path d="M16.6199 2.56003C16.9999 3.18003 17.1199 3.98003 16.8999 5.06003C17.2199 5.04003 17.5399 4.56003 18.2599 4.84003C17.5599 5.30003 17.3599 5.90003 17.3199 6.56003C17.8199 6.30003 18.1199 6.32003 18.2999 6.46003C17.8999 6.88003 17.6199 7.32003 17.9399 7.88003" stroke="white" stroke-width="0.2"/>
<path d="M8.98597 11.1C8.70597 11.08 8.68797 10.96 8.68797 10.96L8.61597 10.78L8.80597 10.8C8.80597 10.8 9.51197 10.88 10.558 10.62C11.002 10.48 11.534 10.1 12.026 9.90002C12.288 9.82002 12.55 9.74002 12.792 9.86002C13.036 9.98002 13.23 10.22 13.372 10.62C13.158 10.64 13.046 10.3 12.682 10.12C12.55 10.04 12.38 10.08 12.152 10.16C11.706 10.32 11.184 10.72 10.65 10.88C9.65997 11.14 9.24397 11.14 8.98597 11.1Z" fill="#111111"/>
<path d="M9.77201 11.62C9.92601 12 10.754 12.42 11.384 12.16C12.046 11.92 12.258 11.06 12.082 10.68C11.904 10.3 11.41 10.58 10.758 10.84C10.13 11.1 9.56201 11.24 9.77201 11.62V11.62Z" fill="white"/>
<path d="M10.194 11.66C10.2173 11.7354 10.2549 11.8064 10.3046 11.8688C10.3543 11.9312 10.415 11.9836 10.4831 12.0229C10.5512 12.0621 10.6252 12.0874 10.7006 12.0973C10.7761 12.1071 10.8514 12.1012 10.922 12.08C10.9927 12.0604 11.0576 12.026 11.1128 11.9788C11.168 11.9316 11.2123 11.8726 11.2432 11.8053C11.274 11.7381 11.2906 11.664 11.2922 11.5875C11.2937 11.511 11.28 11.4336 11.252 11.36C11.2267 11.2876 11.1882 11.2198 11.1385 11.1605C11.0889 11.1013 11.0291 11.0516 10.9626 11.0145C10.8961 10.9773 10.8242 10.9534 10.751 10.944C10.6778 10.9347 10.6047 10.9401 10.536 10.96C10.4664 10.9787 10.4023 11.0116 10.3474 11.057C10.2925 11.1023 10.2478 11.1592 10.216 11.2243C10.1842 11.2894 10.1659 11.3614 10.1621 11.4362C10.1583 11.511 10.1692 11.5871 10.194 11.66Z" fill="#333333"/>
<path d="M10.602 11.28C10.726 11.28 10.904 11.34 10.944 11.5C11.006 11.66 10.922 11.8 10.774 11.82C10.626 11.88 10.46 11.78 10.398 11.66C10.358 11.5 10.454 11.34 10.602 11.28V11.28Z" fill="black"/>
<path d="M10.4339 11.26C10.5259 11.22 10.6479 11.28 10.6879 11.4C10.7299 11.52 10.6579 11.6 10.5559 11.64C10.4639 11.68 10.3539 11.6 10.3019 11.5C10.2619 11.38 10.3439 11.28 10.4339 11.26Z" fill="white"/>
<path d="M2.43202 14.56C2.69202 14.44 3.06202 14.48 3.15002 15.02C3.23602 15.56 2.94002 16.28 2.59002 16.42C2.31202 16.52 1.93202 16.18 1.63602 15.8C1.46602 15.58 1.32603 15.3 1.61203 15.06C2.05203 14.7 2.04802 14.74 2.43202 14.56V14.56Z" fill="#666666" stroke="white" stroke-width="0.2"/>
</svg>
